<svg xmlns="http://www.w3.org/2000/svg" width="1600" height="900" viewBox="0 0 1600 900">
  <defs>
    <linearGradient id="g" x1="0" y1="0" x2="1" y2="1">
      <stop offset="0" stop-color="#F5F7F9"/><stop offset="1" stop-color="#FFFFFF"/>
    </linearGradient>
  </defs>
  <rect width="1600" height="900" fill="url(#g)"/>
  <circle cx="1220" cy="260" r="220" fill="rgba(15,47,74,.05)" stroke="rgba(15,47,74,.12)" stroke-width="2"/>
  <circle cx="1120" cy="330" r="96" fill="rgba(229,57,53,.08)" stroke="rgba(229,57,53,.22)" stroke-width="2"/>
  <g transform="translate(120,190)">
    <rect x="0" y="0" width="520" height="360" rx="28" fill="white" stroke="rgba(15,47,74,.10)" stroke-width="2"/>
    <rect x="36" y="44" width="448" height="14" rx="7" fill="rgba(15,47,74,.10)"/>
    <rect x="36" y="82" width="300" height="14" rx="7" fill="rgba(15,47,74,.08)"/>
    <rect x="36" y="120" width="380" height="14" rx="7" fill="rgba(15,47,74,.08)"/>
    <rect x="36" y="158" width="260" height="14" rx="7" fill="rgba(15,47,74,.08)"/>
    <rect x="36" y="210" width="160" height="120" rx="18" fill="rgba(229,57,53,.06)" stroke="rgba(229,57,53,.18)" stroke-width="2"/>
    <rect x="216" y="210" width="268" height="120" rx="18" fill="rgba(15,47,74,.04)" stroke="rgba(15,47,74,.12)" stroke-width="2"/>
  </g>
  <g transform="translate(860,560)">
    <rect x="0" y="0" width="620" height="220" rx="32" fill="white" stroke="rgba(15,47,74,.10)" stroke-width="2"/>
    <text x="40" y="80" font-family="Inter, Arial" font-size="46" font-weight="900" fill="#0F2F4A">Impact Dashboard</text>
    <text x="40" y="140" font-family="Inter, Arial" font-size="28" font-weight="600" fill="#6C7A86">SROI • Outcome • Fiksasi • Monetisasi</text>
  </g>
</svg>
